<svg id="Capa_1" enable-background="new 0 0 512 512" height="512" viewBox="0 0 512 512" width="512" xmlns="http://www.w3.org/2000/svg"><path d="m347.514 440.896h-320.585c-14.873 0-26.929-12.056-26.929-26.928v-353.205c0-14.872 12.056-26.929 26.929-26.929h320.586c14.872 0 26.929 12.056 26.929 26.929v353.204c-.001 14.873-12.057 26.929-26.93 26.929z" fill="#586b76"/><path d="m346.701 33.835h-20.334v331.243c0 15.322-12.421 27.742-27.742 27.742h-298.625v20.334c0 15.321 12.421 27.742 27.742 27.742h318.959c15.322 0 27.742-12.421 27.742-27.742v-351.577c0-15.322-12.421-27.742-27.742-27.742z" fill="#465961"/><path d="m319.483 171.341h-264.523c-7.18 0-13-5.82-13-13v-60.214c0-7.18 5.82-13 13-13h264.523c7.18 0 13 5.82 13 13v60.214c0 7.179-5.82 13-13 13z" fill="#b3d8fb"/><g fill="#89c6fc"><path d="m319.091 85.127h-10.817v49.642c0 7.397-5.996 13.393-13.393 13.393h-252.921v9.787c0 7.397 5.996 13.393 13.393 13.393h263.738c7.397 0 13.393-5.996 13.393-13.393v-59.43c-.001-7.396-5.997-13.392-13.393-13.392z"/><path d="m108.296 267.934h-66.336v-53.336c0-7.18 5.82-13 13-13h53.336z"/><path d="m108.296 201.598h66.336v66.336h-66.336z"/><path d="m240.967 267.934h-66.336v-66.336h53.336c7.18 0 13 5.82 13 13z"/></g><path d="m82.493 201.598v30.511c0 9.267-7.513 16.78-16.78 16.78h-23.753v19.045h66.336v-66.336z" fill="#62b4fd"/><path d="m148.828 201.598v30.511c0 9.267-7.513 16.78-16.78 16.78h-23.753v19.045h66.336v-66.336z" fill="#62b4fd"/><path d="m215.164 201.598v30.511c0 9.267-7.513 16.78-16.78 16.78h-23.753v19.045h66.336v-53.434c0-7.125-5.776-12.902-12.902-12.902z" fill="#62b4fd"/><path d="m41.96 267.934h66.336v66.336h-66.336z" fill="#89c6fc"/><path d="m108.296 267.934h66.336v66.336h-66.336z" fill="#89c6fc"/><path d="m174.632 267.934h66.336v66.336h-66.336z" fill="#89c6fc"/><path d="m82.493 267.934v30.511c0 9.267-7.513 16.78-16.78 16.78h-23.753v19.045h66.336v-66.336z" fill="#62b4fd"/><path d="m148.828 267.934v30.511c0 9.267-7.513 16.78-16.78 16.78h-23.753v19.045h66.336v-66.336z" fill="#62b4fd"/><path d="m215.164 267.934v30.511c0 9.267-7.513 16.78-16.78 16.78h-23.753v19.045h66.336v-66.336z" fill="#62b4fd"/><path d="m108.296 400.605h-53.336c-7.18 0-13-5.82-13-13v-53.336h66.336z" fill="#89c6fc"/><path d="m108.296 334.269h66.336v66.336h-66.336z" fill="#89c6fc"/><path d="m227.967 400.605h-53.336v-66.336h66.336v53.336c0 7.18-5.82 13-13 13z" fill="#89c6fc"/><path d="m82.493 334.27v30.511c0 9.267-7.513 16.78-16.78 16.78h-23.753v6.143c0 7.125 5.776 12.902 12.902 12.902h53.434v-66.336z" fill="#62b4fd"/><path d="m148.828 334.27v30.511c0 9.267-7.513 16.78-16.78 16.78h-23.753v19.045h66.336v-66.336z" fill="#62b4fd"/><path d="m215.164 334.27v30.511c0 9.267-7.513 16.78-16.78 16.78h-23.753v19.045h53.434c7.125 0 12.902-5.776 12.902-12.902v-53.434z" fill="#62b4fd"/><path d="m512 365.526h-148.572v-46.32c0-5.523 4.477-10 10-10h128.572c5.523 0 10 4.477 10 10z" fill="#fcb143"/><path d="m487.19 309.206v19.548c0 10.892-8.83 19.723-19.723 19.723h-104.039v17.049h148.572v-46.081c0-5.655-4.584-10.239-10.239-10.239z" fill="#fba615"/><path d="m363.428 365.526h148.572v56.32h-148.572z" fill="#fcb143"/><path d="m487.19 365.526v19.548c0 10.892-8.83 19.723-19.723 19.723h-104.039v17.049h148.572v-56.32z" fill="#fba615"/><path d="m502 478.165h-128.572c-5.523 0-10-4.477-10-10v-46.32h148.572v46.32c0 5.523-4.477 10-10 10z" fill="#fcb143"/><path d="m487.19 421.846v19.548c0 10.892-8.83 19.723-19.723 19.723h-104.039v6.81c0 5.655 4.584 10.239 10.239 10.239h128.094c5.655 0 10.239-4.584 10.239-10.239v-46.081z" fill="#fba615"/><path d="m425.599 421.846h-148.572v-46.32c0-5.523 4.477-10 10-10h128.572c5.523 0 10 4.477 10 10z" fill="#fdcb82"/><path d="m401.819 365.526v19.548c0 10.892-8.83 19.723-19.723 19.723h-105.07v17.049h148.572v-45.166c0-6.161-4.994-11.155-11.155-11.155h-12.624z" fill="#fbbe66"/><path d="m415.599 478.165h-128.572c-5.523 0-10-4.477-10-10v-46.32h148.572v46.32c0 5.523-4.477 10-10 10z" fill="#fdcb82"/><path d="m401.819 421.846v19.548c0 10.892-8.83 19.723-19.723 19.723h-105.07v6.81c0 5.655 4.584 10.239 10.239 10.239h128.095c5.655 0 10.239-4.584 10.239-10.239v-46.081z" fill="#fbbe66"/><path d="m322.483 334.269h-43.243c-5.523 0-10-4.477-10-10v-112.671c0-5.523 4.477-10 10-10h43.243c5.523 0 10 4.477 10 10v112.672c0 5.522-4.477 9.999-10 9.999z" fill="#8c9ba6"/><path d="m321.671 201.598h-8.82v102.215c0 5.971-4.841 10.812-10.812 10.812h-32.798v8.832c0 5.971 4.841 10.812 10.812 10.812h41.619c5.971 0 10.812-4.841 10.812-10.812v-111.047c-.001-5.972-4.841-10.812-10.813-10.812z" fill="#7c8b96"/><path d="m136.308 125.458h-61.201c-4.271 0-7.733 3.462-7.733 7.733s3.462 7.733 7.733 7.733h61.201c4.271 0 7.733-3.462 7.733-7.733s-3.461-7.733-7.733-7.733z" fill="#0571f9"/><path d="m188.247 125.458h-19.296c-4.271 0-7.733 3.462-7.733 7.733s3.462 7.733 7.733 7.733h19.296c4.271 0 7.733-3.462 7.733-7.733s-3.462-7.733-7.733-7.733z" fill="#0571f9"/><path d="m308.964 247.193h-16.203c-4.271 0-7.733 3.462-7.733 7.733s3.462 7.733 7.733 7.733h16.203c4.271 0 7.733-3.462 7.733-7.733s-3.462-7.733-7.733-7.733z" fill="#465961"/><path d="m308.964 270.724h-16.203c-4.271 0-7.733 3.462-7.733 7.733s3.462 7.733 7.733 7.733h16.203c4.271 0 7.733-3.462 7.733-7.733s-3.462-7.733-7.733-7.733z" fill="#465961"/></svg>